<svg xmlns="http://www.w3.org/2000/svg" viewBox="0 0 586.2 225.3"><path d="M140.5,26.6a45.1,45.1,0,0,1,11.6-7.7l.5-.2V1.2l-3.5,1.2a60.6,60.6,0,0,0-15.9,9.4,65.1,65.1,0,0,0-16.8,20.8c-.1.1-.2.2-.2.3a.1.1,0,0,0-.1.1l-.3-.4a65.4,65.4,0,0,0-11.2-14.9A63.9,63.9,0,0,0,85,4.5a59.6,59.6,0,0,0-44.9-.2A62.7,62.7,0,0,0,20.3,17.4,64.9,64.9,0,0,0,6.6,36.9,66.5,66.5,0,0,0,.8,56.4a74.7,74.7,0,0,0-.8,8A77.9,77.9,0,0,0,.8,77.2,66.5,66.5,0,0,0,3.6,88.9a64.8,64.8,0,0,0,22,31.5,58.2,58.2,0,0,0,36.2,12.9h.5V116.9H59a36.8,36.8,0,0,1-5.8-.8,44.5,44.5,0,0,1-20.6-10.5A48.6,48.6,0,0,1,20.2,88.7a50.9,50.9,0,0,1-4-13.1,16.2,16.2,0,0,1-.3-2h92.6V225.3h16V73.7h0v-.2h28.1V56.4h-28c.1-.2,0-.3.1-.5a50.8,50.8,0,0,1,15.8-29.3M16.4,56.3a12.9,12.9,0,0,1,.4-1.9A50.9,50.9,0,0,1,27.7,32.8,45.4,45.4,0,0,1,47,19.2,36.7,36.7,0,0,1,55.5,17a43.9,43.9,0,0,1,8.9-.5,42.5,42.5,0,0,1,17.5,4.6,43.9,43.9,0,0,1,13.4,10,50.4,50.4,0,0,1,12.5,23.4c.1.6.3,1.2.4,1.8Z" style="fill:#2760a5"/><polygon points="188.8 6.1 188.8 21.7 210.4 21.7 210.4 26.1 188.8 26.1 188.8 43.1 211.4 43.1 211.4 47.6 184.2 47.6 184.2 1.4 211.4 1.4 211.4 6.1 188.8 6.1" style="fill:#1b2640"/><polygon points="231.3 1.4 231.3 42.8 252.8 42.8 252.8 47.6 226.2 47.6 226.2 1.4 231.3 1.4" style="fill:#1b2640"/><polygon points="271.9 6.1 271.9 21.7 293.5 21.7 293.5 26.1 271.9 26.1 271.9 43.1 294.5 43.1 294.5 47.6 267.3 47.6 267.3 1.4 294.5 1.4 294.5 6.1 271.9 6.1" style="fill:#1b2640"/><path d="M309,47.6V1.4h19.8a22.1,22.1,0,0,1,4.8.4,7.8,7.8,0,0,1,3.6,1.9,9.7,9.7,0,0,1,2.7,5.1,30.2,30.2,0,0,1,.7,7,26.9,26.9,0,0,1-.5,6,9.2,9.2,0,0,1-2.2,4.4,9.5,9.5,0,0,1-2.6,2,14,14,0,0,1-2.9.9l-3.9.3H313.7V47.6Zm4.7-22.5H325a26.4,26.4,0,0,0,6.5-.6,4.7,4.7,0,0,0,3.2-2.5c.7-1.3,1-3.4,1-6.3a27.3,27.3,0,0,0-.4-5.6,4.9,4.9,0,0,0-2-3.1,8.3,8.3,0,0,0-4.6-1h-15Z" style="fill:#1b2640"/><polygon points="389.2 1.4 389.2 47.6 384.4 47.6 384.4 26.2 359.6 26.2 359.6 47.6 354.9 47.6 354.9 1.4 359.6 1.4 359.6 21.7 384.4 21.7 384.4 1.4 389.2 1.4" style="fill:#1b2640"/><path d="M434,37.7H412.6l-3.1,9.9h-5.2L419.8,1.4h6.8l15.7,46.2h-5Zm-1.3-4.1L423.3,5.2,414,33.6Z" style="fill:#1b2640"/><polygon points="493.3 1.4 493.3 47.6 485.5 47.6 461.7 5.8 461.7 47.6 457.1 47.6 457.1 1.4 464.8 1.4 488.6 43.6 488.6 1.4 493.3 1.4" style="fill:#1b2640"/><polygon points="526.3 6.4 526.3 47.6 521.4 47.6 521.4 6.4 507.7 6.4 507.7 1.4 539.8 1.4 539.8 6.4 526.3 6.4" style="fill:#1b2640"/><path d="M585.4,14.1h-4.6a19.7,19.7,0,0,0-.9-5.3,4.1,4.1,0,0,0-2.3-2.5,12.4,12.4,0,0,0-4.9-.7h-2.4c-4.4,0-7.3.4-8.7,1.4s-2.3,3.1-2.3,6.4a17.2,17.2,0,0,0,.5,4.4,4.7,4.7,0,0,0,1.9,2.5,7.9,7.9,0,0,0,3.9,1.1l6.3.2a35.5,35.5,0,0,1,8.4,1.1,8.2,8.2,0,0,1,4.3,3.5c1.1,1.8,1.6,4.4,1.6,7.9a33,33,0,0,1-.6,6.8,8.3,8.3,0,0,1-2.4,4.4,8.9,8.9,0,0,1-5.5,2.1,64.4,64.4,0,0,1-8.1.4,40.3,40.3,0,0,1-6.5-.4,10.5,10.5,0,0,1-4.6-1.6,8,8,0,0,1-3-3.7,16.2,16.2,0,0,1-1.1-6.7V33.2H559a20.1,20.1,0,0,0,.7,6.4,4.3,4.3,0,0,0,2.5,2.9,16.9,16.9,0,0,0,5.9.8h4a20.5,20.5,0,0,0,5.7-.6,4.1,4.1,0,0,0,2.8-2.3,14,14,0,0,0,.9-5.8,19,19,0,0,0-.5-4.8,4,4,0,0,0-1.9-2.3,11.3,11.3,0,0,0-4.3-.8l-7.8-.4a22.8,22.8,0,0,1-6.5-1.2,7.9,7.9,0,0,1-4.3-3.8c-1.1-1.8-1.6-4.3-1.6-7.7s.5-6.2,1.7-8A8,8,0,0,1,561.1,2a34.6,34.6,0,0,1,8-.8h1.1a57.9,57.9,0,0,1,6.5.3A11.9,11.9,0,0,1,581.3,3a7.5,7.5,0,0,1,3,3.7,17.3,17.3,0,0,1,1.1,6.7Z" style="fill:#1b2640"/><path d="M376.2,107.8c0,31.5-19.2,49.2-53.4,49.2-15.9,0-27.9-3.4-36.8-10.4-10.6-8.5-16.4-21.5-16.4-37,0-30.1,20.5-48.1,54.8-48.1,31.7,0,51.8,17.9,51.8,46.3m-79.5.6c0,18.4,10.6,30.8,26.5,30.8s25.9-11.2,25.9-29.7-9.5-29.9-26-29.9-26.4,10.9-26.4,28.8" style="fill:#1b2640"/><path d="M492.6,107.8c0,31.5-19.1,49.2-53.3,49.2-15.9,0-27.9-3.4-36.8-10.4-10.6-8.5-16.4-21.5-16.4-37,0-30.1,20.5-48.1,54.8-48.1,31.7,0,51.7,17.9,51.7,46.3m-79.4.6c0,18.4,10.6,30.8,26.5,30.8s25.9-11.2,25.9-29.7-9.5-29.9-26.1-29.9-26.3,10.9-26.3,28.8" style="fill:#1b2640"/><path d="M585.2,63.4H497.5V83.5h32.2v72h23.6v-.4h0V86.2h0V83.5h31.9Z" style="fill:#1b2640"/><path d="M207.5,82.8h56.1V63.4H183.8v16h0v76.1h23.7V115.3h48V95.8h-48Z" style="fill:#1b2640"/><path style="fill:#1b2640"/></svg>